<svg width="23" height="26" viewBox="0 0 23 26" fill="none" xmlns="http://www.w3.org/2000/svg">
<path d="M1.19447 24.1769C1.57316 24.5556 2.02273 24.856 2.51752 25.0609C3.0123 25.2659 3.54261 25.3714 4.07816 25.3714C4.61371 25.3714 5.14402 25.2659 5.6388 25.0609C6.13359 24.856 6.58316 24.5556 6.96185 24.1769L21.0595 10.0788C21.6114 9.53293 22.05 8.88333 22.35 8.16738C22.6501 7.45142 22.8056 6.68322 22.8078 5.90693C22.8099 5.13065 22.6586 4.3616 22.3626 3.64399C22.0665 2.92638 21.6315 2.27437 21.0826 1.72544C20.5337 1.17651 19.8817 0.741481 19.1641 0.445373C18.4465 0.149266 17.6775 -0.00208519 16.9012 2.16975e-05C16.1249 0.00212858 15.3567 0.157652 14.6407 0.45765C13.9248 0.757649 13.2751 1.19621 12.7292 1.74811L3.43699 11.0399L4.07816 11.6811L13.3699 2.38928C13.8316 1.92135 14.3814 1.54937 14.9874 1.29475C15.5935 1.04014 16.2439 0.907928 16.9013 0.905725C17.5586 0.903523 18.2099 1.03138 18.8177 1.28192C19.4254 1.53247 19.9776 1.90076 20.4424 2.36559C20.9073 2.83042 21.2756 3.3826 21.5261 3.99035C21.7767 4.5981 21.9045 5.24941 21.9023 5.90677C21.9001 6.56413 21.7679 7.21457 21.5133 7.82063C21.2587 8.42668 20.8867 8.97639 20.4188 9.43809L6.32113 23.5357C5.72626 24.1306 4.91944 24.4648 4.07816 24.4648C3.23688 24.4648 2.43006 24.1306 1.83519 23.5357C1.24032 22.9408 0.906123 22.134 0.906123 21.2927C0.906123 20.4515 1.24032 19.6447 1.83519 19.0498L14.0107 6.87431C14.2663 6.62284 14.611 6.48258 14.9696 6.48408C15.3282 6.48558 15.6717 6.62873 15.9252 6.88233C16.1788 7.13594 16.3219 7.47946 16.3233 7.83807C16.3247 8.19668 16.1844 8.54132 15.9328 8.79692L8.56364 16.1665L9.20436 16.8073L16.574 9.43809C16.9958 9.01257 17.2319 8.43729 17.2306 7.83812C17.2293 7.23896 16.9907 6.66472 16.567 6.24105C16.1433 5.81738 15.5691 5.57878 14.9699 5.57747C14.3707 5.57615 13.7955 5.81223 13.3699 6.23405L1.19447 18.4095C0.815779 18.7882 0.515382 19.2378 0.310434 19.7326C0.105486 20.2273 0 20.7577 0 21.2932C0 21.8288 0.105486 22.3591 0.310434 22.8538C0.515382 23.3486 0.815779 23.7982 1.19447 24.1769V24.1769Z" fill="#AEAEAE"/>
</svg>
