<svg width="198" height="31" viewBox="0 0 198 31" fill="none" xmlns="http://www.w3.org/2000/svg"> <path class="logo-img" fill-rule="evenodd" clip-rule="evenodd" d="M17.2687 20.9573C16.651 21.3139 15.9503 21.5017 15.2371 21.5017C14.5238 21.5017 13.8231 21.3139 13.2054 20.9573L11.4277 19.9414V28.7283L13.2054 29.7442C13.8231 30.1008 14.5238 30.2886 15.2371 30.2886C15.9503 30.2886 16.651 30.1008 17.2687 29.7442L30.4745 22.1255V13.3335L17.2687 20.9573Z" fill="currentColor"></path> <path class="logo-img" fill-rule="evenodd" clip-rule="evenodd" d="M17.269 8.12749C16.6513 8.48412 15.9507 8.67187 15.2374 8.67187C14.5241 8.67187 13.8234 8.48412 13.2057 8.12749L0 0.508789V22.5014L7.6187 26.9V13.7145L13.2057 16.9398C13.8234 17.2964 14.5241 17.4842 15.2374 17.4842C15.9507 17.4842 16.6513 17.2964 17.269 16.9398L30.4748 9.32108V0.508789L17.269 8.12749Z" fill="currentColor"></path> <path class="logo-text" fill-rule="evenodd" clip-rule="evenodd" d="M71.468 6.51202C70.108 7.97713 69.3784 9.91805 69.4364 11.9162C69.3707 13.9312 70.063 15.8976 71.3766 17.4271C72.0359 18.1514 72.8461 18.7224 73.7499 19.0997C74.6538 19.4771 75.6294 19.6516 76.6081 19.6111C77.5809 19.6561 78.5513 19.4797 79.446 19.0952C80.3408 18.7108 81.1366 18.1282 81.7736 17.3915C83.1021 15.8827 83.8083 13.9257 83.7494 11.9162C83.807 9.92829 83.0998 7.99398 81.7736 6.51202C81.1319 5.7932 80.3393 5.22511 79.4525 4.84842C78.5656 4.47172 77.6065 4.29574 76.6436 4.33308C75.6772 4.30269 74.7157 4.48169 73.825 4.85779C72.9343 5.2339 72.1354 5.79821 71.4833 6.51202H71.468ZM67.5876 20.4085C66.4866 19.2923 65.6239 17.9639 65.052 16.504C64.4802 15.0442 64.2109 13.4833 64.2607 11.9162C64.2318 10.3478 64.5277 8.79046 65.13 7.34204C65.7323 5.89363 66.6278 4.58554 67.7602 3.5001C68.9293 2.3665 70.3137 1.47863 71.8316 0.888911C73.3495 0.299196 74.9702 0.0195909 76.5979 0.0666051C80.1533 0.0666051 83.1094 1.20941 85.395 3.5001C86.5177 4.58957 87.4025 5.89991 87.9934 7.34845C88.5844 8.79699 88.8687 10.3523 88.8285 11.9162C88.8711 13.4897 88.5845 15.0547 87.9871 16.511C87.3897 17.9673 86.4947 19.2827 85.3594 20.373C83.0738 22.623 80.1279 23.7303 76.5624 23.7303C72.8191 23.7303 69.8376 22.623 67.5876 20.4085V20.4085Z" fill="currentColor"></path> <path class="logo-text" fill-rule="evenodd" clip-rule="evenodd" d="M90.2559 17.2189C91.3361 18.0076 92.5367 18.6165 93.8113 19.022C95.0045 19.4361 96.2561 19.6573 97.519 19.6772C99.8757 19.6772 101.501 18.8493 101.501 17.1376C101.501 15.5733 99.7691 14.3289 97.6562 13.3943C94.6087 12.0433 90.5454 10.3062 90.586 6.32416C90.5602 5.44144 90.7415 4.56495 91.1155 3.76495C91.4895 2.96495 92.0457 2.26369 92.7396 1.71738C94.1719 0.589817 96.041 0.000637774 98.3672 0.000637774C100.72 -0.0203219 103.049 0.475565 105.189 1.45327V5.88735C104.271 5.31632 103.28 4.8737 102.243 4.57186C101.257 4.2547 100.23 4.08358 99.1951 4.06394C97.1635 4.06394 95.7312 4.79026 95.7312 6.31908C95.7312 7.97995 98.5044 8.63516 101.171 10.0218C102.08 10.4854 102.959 11.0062 103.802 11.5811C104.691 12.1873 105.416 13.003 105.915 13.9561C106.414 14.9092 106.67 15.9705 106.661 17.0462C106.676 17.9624 106.482 18.8698 106.095 19.7003C105.708 20.5308 105.137 21.2627 104.427 21.8409C102.974 23.1259 100.871 23.7507 98.1539 23.7507C94.9693 23.7507 92.3332 23.1259 90.2559 21.912V17.2189Z" fill="currentColor"></path> <path class="logo-text" fill-rule="evenodd" clip-rule="evenodd" d="M108.388 17.2194C109.467 18.0095 110.668 18.6185 111.943 19.0224C113.125 19.4325 114.364 19.6536 115.615 19.6777C117.972 19.6777 119.602 18.8498 119.602 17.1381C119.602 15.5737 117.87 14.3293 115.758 13.3948C112.71 12.0437 108.616 10.3067 108.687 6.32461C108.661 5.44226 108.841 4.5659 109.214 3.76587C109.587 2.96583 110.143 2.2644 110.836 1.71784C112.299 0.590272 114.173 0.00109213 116.494 0.00109213C118.848 -0.0192904 121.178 0.476553 123.32 1.45372V5.88781C122.403 5.31677 121.412 4.87415 120.374 4.57231C119.389 4.25551 118.362 4.0844 117.327 4.0644C115.295 4.0644 113.858 4.79071 113.858 6.31953C113.858 7.98041 116.631 8.63562 119.298 10.0222C120.208 10.4858 121.089 11.0066 121.934 11.5815C122.819 12.1916 123.542 13.0101 124.037 13.9648C124.532 14.9196 124.785 15.9814 124.773 17.0568C124.789 17.9697 124.597 18.8742 124.214 19.7028C123.83 20.5314 123.264 21.2624 122.558 21.8414C121.101 23.1264 119.003 23.7511 116.286 23.7511C113.096 23.7511 110.465 23.1264 108.388 21.9125V17.2194Z" fill="currentColor"></path> <path class="logo-text" fill-rule="evenodd" clip-rule="evenodd" d="M60.5933 0.508789L49.9272 12.912L39.1848 0.508789H38.0928V23.3649H43.0449V12.1908C43.0642 12.1931 43.0838 12.1911 43.1022 12.1849C43.1207 12.1788 43.1375 12.1686 43.1516 12.1552L49.5259 19.1238H50.2827L56.5199 12.1603C56.591 12.1603 56.6214 12.1603 56.657 12.1959V23.3649H61.6498V0.508789H60.5933Z" fill="currentColor"></path> <path class="logo-text" fill-rule="evenodd" clip-rule="evenodd" d="M149.468 0.508789L138.802 12.912L128.059 0.508789H126.978V23.3649H131.93V12.1908C131.949 12.1931 131.969 12.1911 131.987 12.1849C132.005 12.1788 132.022 12.1686 132.036 12.1552L138.411 19.1187H139.167L145.405 12.1552C145.476 12.1552 145.506 12.1552 145.542 12.1908V23.3649H150.529V0.508789H149.468Z" fill="currentColor"></path> <path class="logo-text" fill-rule="evenodd" clip-rule="evenodd" d="M161.008 16.2131L163.817 9.87433H163.954L166.692 16.2131H161.008ZM163.38 0.467773L152.714 23.3239H157.844L159.434 19.7228H168.2L169.765 23.3645H174.996L164.518 0.508406L163.38 0.467773Z" fill="currentColor"></path> <path class="logo-text" fill-rule="evenodd" clip-rule="evenodd" d="M182.848 10.1591H182.955L196.867 23.3649H198V0.508789H192.87V13.2676H192.732C191.173 11.7438 188.781 9.5598 185.622 6.72057C182.762 4.10481 180.532 2.03253 178.922 0.508789H177.698V23.3649H182.848V10.1591Z" fill="currentColor"></path> </svg>